<svg width="410" height="1024" viewBox="0 0 410 1024" fill="none" xmlns="http://www.w3.org/2000/svg">
<g clip-path="url(#clip0_84_81)">
<rect y="-3" width="410" height="1027" fill="url(#paint0_linear_84_81)"/>
<rect x="80.4004" y="760" width="221" height="221" rx="40" transform="rotate(37.1298 80.4004 760)" fill="url(#paint1_linear_84_81)" fill-opacity="0.85"/>
<rect x="108.711" y="-175" width="239.737" height="239.737" rx="43.3913" transform="rotate(37.1298 108.711 -175)" fill="url(#paint2_linear_84_81)" fill-opacity="0.85"/>
<rect x="413" y="446" width="104.128" height="104.128" rx="18.8468" transform="rotate(37.1298 413 446)" fill="url(#paint3_linear_84_81)" fill-opacity="0.85"/>
<rect x="3" y="446" width="104.128" height="104.128" rx="18.8468" transform="rotate(37.1298 3 446)" fill="url(#paint4_linear_84_81)" fill-opacity="0.2"/>
<rect x="3" y="446" width="104.128" height="104.128" rx="18.8468" transform="rotate(37.1298 3 446)" fill="url(#paint5_linear_84_81)" fill-opacity="0.2"/>
<rect x="378" y="758" width="239.737" height="239.737" rx="43.3913" transform="rotate(37.1298 378 758)" fill="url(#paint6_linear_84_81)" fill-opacity="0.85"/>
<g clip-path="url(#clip1_84_81)">
<mask id="mask0_84_81" style="mask-type:luminance" maskUnits="userSpaceOnUse" x="132" y="471" width="45" height="44">
<path d="M142 471.5H167C171.971 471.5 176 475.529 176 480.5V505.5C176 510.471 171.971 514.5 167 514.5H142C137.029 514.5 133 510.471 133 505.5V480.5C133 475.529 137.029 471.5 142 471.5Z" fill="white" stroke="white"/>
</mask>
<g mask="url(#mask0_84_81)">
<path d="M141.999 471.5H166.999C171.97 471.5 175.999 475.529 175.999 480.5V505.5C175.999 510.471 171.97 514.5 166.999 514.5H141.999C137.028 514.5 132.999 510.471 132.999 505.5V480.5C132.999 475.529 137.028 471.5 141.999 471.5Z" fill="#F55E1D" stroke="url(#paint7_linear_84_81)"/>
<path d="M167.003 471.914H142.003C137.263 471.914 133.42 475.757 133.42 480.497V505.497C133.42 510.238 137.263 514.081 142.003 514.081H167.003C171.744 514.081 175.587 510.238 175.587 505.497V480.497C175.587 475.757 171.744 471.914 167.003 471.914Z" stroke="url(#paint8_linear_84_81)" stroke-width="1.83333"/>
<path opacity="0.4" d="M148.284 483.131H160.729C162.743 483.131 164.377 484.764 164.377 486.779V499.224C164.377 501.238 162.743 502.872 160.729 502.872H148.284C146.269 502.872 144.636 501.238 144.636 499.224V486.779C144.636 484.764 146.269 483.131 148.284 483.131Z" fill="white" stroke="url(#paint9_linear_84_81)"/>
<path opacity="0.2" d="M144.649 486.758H157.094C159.109 486.758 160.742 488.391 160.742 490.406V502.851C160.742 504.865 159.109 506.499 157.094 506.499H144.649C142.635 506.499 141.001 504.865 141.001 502.851V490.406C141.001 488.391 142.635 486.758 144.649 486.758Z" fill="white" stroke="url(#paint10_linear_84_81)"/>
<path d="M151.905 479.498H164.35C166.364 479.498 167.998 481.132 167.998 483.146V495.591C167.998 497.606 166.364 499.239 164.35 499.239H151.905C149.89 499.239 148.257 497.606 148.257 495.591V483.146C148.257 481.132 149.89 479.498 151.905 479.498Z" fill="white" stroke="url(#paint11_linear_84_81)"/>
</g>
<path d="M194.489 492.17L192.784 499.5H189.708L186.518 487.116H189.146L190.868 494.701C190.944 495.023 191.026 495.396 191.114 495.817C191.208 496.239 191.284 496.649 191.343 497.048C191.401 496.772 191.454 496.506 191.501 496.248C191.554 495.984 191.606 495.727 191.659 495.475C191.712 495.217 191.768 494.962 191.826 494.71L193.575 487.116H196.476L198.207 494.438C198.266 494.684 198.336 495.041 198.418 495.51C198.506 495.979 198.588 496.491 198.664 497.048C198.74 496.708 198.808 496.409 198.866 496.151C198.931 495.888 198.992 495.627 199.051 495.369C199.115 495.105 199.183 494.807 199.253 494.473L200.844 487.116H203.472L200.272 499.5H197.196L195.518 492.337C195.418 491.915 195.324 491.484 195.236 491.045C195.148 490.605 195.069 490.154 194.999 489.691C194.952 489.943 194.894 490.239 194.823 490.579C194.753 490.919 194.686 491.235 194.621 491.528C194.562 491.821 194.519 492.035 194.489 492.17ZM207.066 486.457V488.276H204.597V486.457H207.066ZM207.066 489.99V499.5H204.597V489.99H207.066ZM212.076 494.833V499.5H209.606V492.223C209.606 491.701 209.598 491.268 209.58 490.922C209.568 490.57 209.554 490.26 209.536 489.99H211.892C211.903 490.043 211.915 490.16 211.927 490.342C211.938 490.523 211.95 490.729 211.962 490.957C211.974 491.18 211.982 491.391 211.988 491.59C212 491.789 212.006 491.933 212.006 492.021H212.041C212.275 491.364 212.489 490.893 212.683 490.605C212.87 490.33 213.093 490.128 213.351 489.999C213.608 489.87 213.931 489.806 214.317 489.806C214.634 489.806 214.889 489.85 215.082 489.938V492.003C214.689 491.915 214.338 491.871 214.027 491.871C213.412 491.871 212.932 492.12 212.586 492.618C212.246 493.116 212.076 493.854 212.076 494.833ZM218.659 495.22C218.659 496.146 218.829 496.846 219.169 497.32C219.515 497.789 220.004 498.023 220.637 498.023C221.07 498.023 221.425 497.93 221.7 497.742C221.981 497.549 222.178 497.265 222.289 496.89L224.618 497.092C223.944 498.814 222.576 499.676 220.514 499.676C219.084 499.676 217.985 499.254 217.218 498.41C216.45 497.561 216.066 496.324 216.066 494.701C216.066 493.131 216.456 491.924 217.235 491.08C218.015 490.236 219.119 489.814 220.549 489.814C221.914 489.814 222.957 490.269 223.678 491.177C224.398 492.079 224.759 493.403 224.759 495.149V495.22H218.659ZM222.368 493.673C222.321 492.905 222.137 492.331 221.814 491.95C221.492 491.563 221.059 491.37 220.514 491.37C219.934 491.37 219.485 491.572 219.169 491.977C218.858 492.381 218.694 492.946 218.677 493.673H222.368ZM238.628 493.251C238.628 494.353 238.443 495.334 238.074 496.195C237.711 497.057 237.187 497.769 236.501 498.331C235.815 498.888 234.989 499.266 234.022 499.465C234.222 500.045 234.5 500.464 234.857 500.722C235.221 500.979 235.728 501.108 236.378 501.108C236.741 501.108 237.09 501.079 237.424 501.021L237.406 502.796C236.68 502.96 235.971 503.042 235.279 503.042C234.324 503.042 233.533 502.775 232.906 502.242C232.279 501.709 231.775 500.824 231.395 499.588C230.281 499.482 229.332 499.16 228.547 498.621C227.762 498.082 227.161 497.358 226.745 496.45C226.329 495.536 226.121 494.47 226.121 493.251C226.121 491.927 226.367 490.793 226.859 489.85C227.357 488.906 228.072 488.186 229.004 487.688C229.941 487.184 231.063 486.932 232.37 486.932C233.683 486.932 234.805 487.187 235.736 487.696C236.668 488.2 237.383 488.924 237.881 489.867C238.379 490.811 238.628 491.938 238.628 493.251ZM235.982 493.251C235.982 491.915 235.666 490.869 235.033 490.113C234.4 489.352 233.513 488.971 232.37 488.971C231.21 488.971 230.313 489.349 229.681 490.104C229.048 490.854 228.731 491.903 228.731 493.251C228.731 494.153 228.875 494.936 229.162 495.598C229.455 496.254 229.871 496.761 230.41 497.118C230.955 497.47 231.603 497.646 232.353 497.646C233.513 497.646 234.406 497.265 235.033 496.503C235.666 495.741 235.982 494.657 235.982 493.251ZM246.696 497.61C246.368 498.331 245.949 498.855 245.439 499.184C244.936 499.512 244.335 499.676 243.638 499.676C242.63 499.676 241.856 499.368 241.317 498.753C240.778 498.132 240.509 497.224 240.509 496.028V489.99H242.979V495.325C242.979 496.157 243.119 496.784 243.4 497.206C243.682 497.622 244.104 497.83 244.666 497.83C245.264 497.83 245.744 497.575 246.107 497.065C246.477 496.55 246.661 495.891 246.661 495.088V489.99H249.131V497.373C249.131 497.777 249.137 498.158 249.148 498.516C249.16 498.867 249.178 499.195 249.201 499.5H246.846C246.811 499.078 246.784 498.709 246.767 498.393C246.749 498.076 246.74 497.815 246.74 497.61H246.696ZM260.688 494.736C260.688 496.277 260.261 497.487 259.405 498.366C258.55 499.239 257.366 499.676 255.854 499.676C254.372 499.676 253.209 499.236 252.365 498.357C251.521 497.479 251.1 496.271 251.1 494.736C251.1 493.207 251.521 492.006 252.365 491.133C253.209 490.254 254.39 489.814 255.907 489.814C257.46 489.814 258.644 490.239 259.458 491.089C260.278 491.933 260.688 493.148 260.688 494.736ZM258.104 494.736C258.104 493.605 257.92 492.785 257.551 492.275C257.182 491.766 256.645 491.511 255.942 491.511C255.192 491.511 254.63 491.78 254.255 492.319C253.88 492.853 253.692 493.658 253.692 494.736C253.692 495.797 253.874 496.605 254.237 497.162C254.606 497.713 255.137 497.988 255.828 497.988C256.59 497.988 257.158 497.719 257.533 497.18C257.914 496.635 258.104 495.82 258.104 494.736ZM267.175 499.359C266.577 499.559 265.883 499.658 265.092 499.658C264.365 499.658 263.806 499.462 263.413 499.069C263.021 498.671 262.824 498.07 262.824 497.268V491.66H261.62V489.99H262.947L263.721 487.758H265.268V489.99H267.069V491.66H265.268V496.6C265.268 497.063 265.355 497.405 265.531 497.628C265.707 497.845 265.979 497.953 266.349 497.953C266.524 497.953 266.8 497.912 267.175 497.83V499.359ZM270.69 495.22C270.69 496.146 270.86 496.846 271.2 497.32C271.546 497.789 272.035 498.023 272.668 498.023C273.102 498.023 273.456 497.93 273.731 497.742C274.013 497.549 274.209 497.265 274.32 496.89L276.649 497.092C275.976 498.814 274.607 499.676 272.545 499.676C271.115 499.676 270.017 499.254 269.249 498.41C268.481 497.561 268.098 496.324 268.098 494.701C268.098 493.131 268.487 491.924 269.267 491.08C270.046 490.236 271.15 489.814 272.58 489.814C273.945 489.814 274.988 490.269 275.709 491.177C276.43 492.079 276.79 493.403 276.79 495.149V495.22H270.69ZM274.399 493.673C274.353 492.905 274.168 492.331 273.846 491.95C273.523 491.563 273.09 491.37 272.545 491.37C271.965 491.37 271.517 491.572 271.2 491.977C270.89 492.381 270.726 492.946 270.708 493.673H274.399Z" fill="black"/>
</g>
<path d="M198.583 499.667C199.047 499.667 199.492 499.851 199.821 500.179C200.149 500.507 200.333 500.953 200.333 501.417V507.25C200.333 507.714 200.149 508.159 199.821 508.488C199.492 508.816 199.047 509 198.583 509C198.119 509 197.674 508.816 197.346 508.488C197.018 508.159 196.833 507.714 196.833 507.25V501.417C196.833 500.953 197.018 500.507 197.346 500.179C197.674 499.851 198.119 499.667 198.583 499.667ZM187.43 504.263C187.758 503.936 188.203 503.752 188.667 503.752C189.13 503.752 189.575 503.936 189.903 504.263L193.987 508.347C194.159 508.507 194.296 508.7 194.392 508.915C194.488 509.129 194.539 509.361 194.543 509.596C194.547 509.831 194.504 510.065 194.416 510.282C194.328 510.5 194.197 510.698 194.031 510.865C193.865 511.031 193.667 511.162 193.449 511.25C193.231 511.338 192.998 511.381 192.763 511.377C192.528 511.373 192.296 511.321 192.081 511.226C191.867 511.13 191.673 510.992 191.513 510.82L187.43 506.737C187.102 506.409 186.918 505.964 186.918 505.5C186.918 505.036 187.102 504.592 187.43 504.263ZM209.737 504.263C210.064 504.592 210.248 505.036 210.248 505.5C210.248 505.964 210.064 506.409 209.737 506.737L205.653 510.82C205.493 510.992 205.3 511.13 205.085 511.226C204.871 511.321 204.639 511.373 204.404 511.377C204.169 511.381 203.935 511.338 203.718 511.25C203.5 511.162 203.302 511.031 203.135 510.865C202.969 510.698 202.838 510.5 202.75 510.282C202.662 510.065 202.619 509.831 202.623 509.596C202.627 509.361 202.679 509.129 202.774 508.915C202.87 508.7 203.008 508.507 203.18 508.347L207.263 504.263C207.591 503.936 208.036 503.752 208.5 503.752C208.964 503.752 209.408 503.936 209.737 504.263ZM182.833 515.417C182.833 514.953 183.018 514.508 183.346 514.179C183.674 513.851 184.119 513.667 184.583 513.667H190.417C190.881 513.667 191.326 513.851 191.654 514.179C191.982 514.508 192.167 514.953 192.167 515.417C192.167 515.881 191.982 516.326 191.654 516.654C191.326 516.982 190.881 517.167 190.417 517.167H184.583C184.119 517.167 183.674 516.982 183.346 516.654C183.018 516.326 182.833 515.881 182.833 515.417ZM201.913 514.801C199.918 513.088 196.833 514.507 196.833 517.136V543.442C196.833 546.266 200.322 547.6 202.205 545.496L208.304 538.675C208.948 537.957 209.853 537.532 210.817 537.492L219.777 537.133C222.57 537.021 223.779 533.542 221.655 531.72L201.915 514.801H201.913ZM200.333 542.336V518.056L218.561 533.68L210.675 533.995C209.73 534.033 208.803 534.26 207.948 534.664C207.093 535.067 206.328 535.638 205.698 536.342L200.333 542.336Z" fill="black"/>
</g>
<defs>
<linearGradient id="paint0_linear_84_81" x1="205" y1="-3" x2="205" y2="1024" gradientUnits="userSpaceOnUse">
<stop stop-color="#FEF5F0"/>
<stop offset="1" stop-color="#FAA885"/>
</linearGradient>
<linearGradient id="paint1_linear_84_81" x1="190.9" y1="760" x2="190.9" y2="981" gradientUnits="userSpaceOnUse">
<stop stop-color="#F55E1D" stop-opacity="0.6"/>
<stop offset="1" stop-color="#F78352" stop-opacity="0.32"/>
</linearGradient>
<linearGradient id="paint2_linear_84_81" x1="228.579" y1="-175" x2="228.579" y2="64.737" gradientUnits="userSpaceOnUse">
<stop stop-color="#F55E1D" stop-opacity="0.6"/>
<stop offset="1" stop-color="#F78352" stop-opacity="0.32"/>
</linearGradient>
<linearGradient id="paint3_linear_84_81" x1="465.064" y1="446" x2="465.064" y2="550.128" gradientUnits="userSpaceOnUse">
<stop stop-color="#F55E1D" stop-opacity="0.6"/>
<stop offset="1" stop-color="#F78352" stop-opacity="0.32"/>
</linearGradient>
<linearGradient id="paint4_linear_84_81" x1="55.0642" y1="446" x2="55.0642" y2="550.128" gradientUnits="userSpaceOnUse">
<stop stop-color="#F55E1D" stop-opacity="0.48"/>
<stop offset="1" stop-color="#F55E1D" stop-opacity="0.2"/>
</linearGradient>
<linearGradient id="paint5_linear_84_81" x1="55.0642" y1="446" x2="55.0642" y2="550.128" gradientUnits="userSpaceOnUse">
<stop stop-color="#F55E1D" stop-opacity="0.48"/>
<stop offset="1" stop-color="#F55E1D" stop-opacity="0.2"/>
</linearGradient>
<linearGradient id="paint6_linear_84_81" x1="497.868" y1="758" x2="497.868" y2="997.737" gradientUnits="userSpaceOnUse">
<stop stop-color="#F55E1D" stop-opacity="0.6"/>
<stop offset="1" stop-color="#F78352" stop-opacity="0.32"/>
</linearGradient>
<linearGradient id="paint7_linear_84_81" x1="154.499" y1="471" x2="154.499" y2="515" gradientUnits="userSpaceOnUse">
<stop stop-color="#F55E1D"/>
<stop offset="1" stop-color="#F78352"/>
</linearGradient>
<linearGradient id="paint8_linear_84_81" x1="154.503" y1="471.914" x2="154.503" y2="514.081" gradientUnits="userSpaceOnUse">
<stop stop-color="#F55E1D"/>
<stop offset="1" stop-color="#F78352"/>
</linearGradient>
<linearGradient id="paint9_linear_84_81" x1="154.506" y1="482.631" x2="154.506" y2="503.372" gradientUnits="userSpaceOnUse">
<stop stop-color="#F55E1D"/>
<stop offset="1" stop-color="#F78352"/>
</linearGradient>
<linearGradient id="paint10_linear_84_81" x1="150.871" y1="486.258" x2="150.871" y2="506.999" gradientUnits="userSpaceOnUse">
<stop stop-color="#F55E1D"/>
<stop offset="1" stop-color="#F78352"/>
</linearGradient>
<linearGradient id="paint11_linear_84_81" x1="158.127" y1="478.998" x2="158.127" y2="499.739" gradientUnits="userSpaceOnUse">
<stop stop-color="#F55E1D"/>
<stop offset="1" stop-color="#F78352"/>
</linearGradient>
<clipPath id="clip0_84_81">
<rect width="410" height="1027" fill="white" transform="translate(0 -3)"/>
</clipPath>
<clipPath id="clip1_84_81">
<rect width="145" height="44" fill="white" transform="translate(132.5 471)"/>
</clipPath>
</defs>
</svg>
