<svg width="2412" height="1326" viewBox="0 0 2412 1326" fill="none" xmlns="http://www.w3.org/2000/svg">
<mask id="mask0_209_7" style="mask-type:alpha" maskUnits="userSpaceOnUse" x="-1" y="-1" width="2414" height="1328">
<path d="M0 0V1326" stroke="#B3B3B3" stroke-opacity="0.6" stroke-dasharray="4 4"/>
<path d="M141.874 0V1326" stroke="#B3B3B3" stroke-opacity="0.6" stroke-dasharray="4 4"/>
<path d="M283.748 0V1326" stroke="#B3B3B3" stroke-opacity="0.6" stroke-dasharray="4 4"/>
<path d="M425.623 0V1326" stroke="#B3B3B3" stroke-opacity="0.6" stroke-dasharray="4 4"/>
<path d="M567.497 0V1326" stroke="#B3B3B3" stroke-opacity="0.6" stroke-dasharray="4 4"/>
<path d="M709.371 0V1326" stroke="#B3B3B3" stroke-opacity="0.6" stroke-dasharray="4 4"/>
<path d="M851.245 0V1326" stroke="#B3B3B3" stroke-opacity="0.6" stroke-dasharray="4 4"/>
<path d="M993.119 0V1326" stroke="#B3B3B3" stroke-opacity="0.6" stroke-dasharray="4 4"/>
<path d="M1134.99 0V1326" stroke="#B3B3B3" stroke-opacity="0.6" stroke-dasharray="4 4"/>
<path d="M1276.87 0V1326" stroke="#B3B3B3" stroke-opacity="0.6" stroke-dasharray="4 4"/>
<path d="M1418.74 0V1326" stroke="#B3B3B3" stroke-opacity="0.6" stroke-dasharray="4 4"/>
<path d="M1560.61 0V1326" stroke="#B3B3B3" stroke-opacity="0.6" stroke-dasharray="4 4"/>
<path d="M1702.49 0V1326" stroke="#B3B3B3" stroke-opacity="0.6" stroke-dasharray="4 4"/>
<path d="M1844.36 0V1326" stroke="#B3B3B3" stroke-opacity="0.6" stroke-dasharray="4 4"/>
<path d="M1986.24 0V1326" stroke="#B3B3B3" stroke-opacity="0.6" stroke-dasharray="4 4"/>
<path d="M2128.11 0V1326" stroke="#B3B3B3" stroke-opacity="0.6" stroke-dasharray="4 4"/>
<path d="M2269.98 0V1326" stroke="#B3B3B3" stroke-opacity="0.6" stroke-dasharray="4 4"/>
<path d="M2411.86 0V1326" stroke="#B3B3B3" stroke-opacity="0.6" stroke-dasharray="4 4"/>
<path d="M0 0H2411.86" stroke="#B3B3B3" stroke-opacity="0.6" stroke-dasharray="4 4"/>
<path d="M0 78H2411.86" stroke="#B3B3B3" stroke-opacity="0.6" stroke-dasharray="4 4"/>
<path d="M0 156H2411.86" stroke="#B3B3B3" stroke-opacity="0.6" stroke-dasharray="4 4"/>
<path d="M0 234H2411.86" stroke="#B3B3B3" stroke-opacity="0.6" stroke-dasharray="4 4"/>
<path d="M0 312H2411.86" stroke="#B3B3B3" stroke-opacity="0.6" stroke-dasharray="4 4"/>
<path d="M0 390H2411.86" stroke="#B3B3B3" stroke-opacity="0.6" stroke-dasharray="4 4"/>
<path d="M0 468H2411.86" stroke="#B3B3B3" stroke-opacity="0.6" stroke-dasharray="4 4"/>
<path d="M0 546H2411.86" stroke="#B3B3B3" stroke-opacity="0.6" stroke-dasharray="4 4"/>
<path d="M0 624H2411.86" stroke="#B3B3B3" stroke-opacity="0.6" stroke-dasharray="4 4"/>
<path d="M0 702H2411.86" stroke="#B3B3B3" stroke-opacity="0.6" stroke-dasharray="4 4"/>
<path d="M0 780H2411.86" stroke="#B3B3B3" stroke-opacity="0.6" stroke-dasharray="4 4"/>
<path d="M0 858.001H2411.86" stroke="#B3B3B3" stroke-opacity="0.6" stroke-dasharray="4 4"/>
<path d="M0 936H2411.86" stroke="#B3B3B3" stroke-opacity="0.6" stroke-dasharray="4 4"/>
<path d="M0 1014H2411.86" stroke="#B3B3B3" stroke-opacity="0.6" stroke-dasharray="4 4"/>
<path d="M0 1092H2411.86" stroke="#B3B3B3" stroke-opacity="0.6" stroke-dasharray="4 4"/>
<path d="M0 1170H2411.86" stroke="#B3B3B3" stroke-opacity="0.6" stroke-dasharray="4 4"/>
<path d="M0 1248H2411.86" stroke="#B3B3B3" stroke-opacity="0.6" stroke-dasharray="4 4"/>
<path d="M0 1326H2411.86" stroke="#B3B3B3" stroke-opacity="0.6" stroke-dasharray="4 4"/>
</mask>
<g mask="url(#mask0_209_7)">
<ellipse cx="1094.5" cy="447.5" rx="811.5" ry="395.5" fill="#D9D9D9"/>
</g>
</svg>
