<svg width="14" height="15" viewBox="0 0 14 15" fill="none" xmlns="http://www.w3.org/2000/svg">
<path d="M1.33569 8.66842C1.20953 8.66885 1.08584 8.63348 0.97899 8.56641C0.872139 8.49934 0.786511 8.40333 0.732055 8.28953C0.677599 8.17573 0.65655 8.04881 0.671355 7.92353C0.686159 7.79824 0.736208 7.67973 0.815688 7.58176L7.41569 0.781757C7.4652 0.724611 7.53266 0.685994 7.60701 0.672245C7.68136 0.658496 7.75817 0.670432 7.82484 0.706093C7.89151 0.741754 7.94408 0.799021 7.97391 0.868495C8.00375 0.937969 8.00907 1.01552 7.98902 1.08842L6.70902 5.10176C6.67128 5.20277 6.6586 5.31144 6.67208 5.41843C6.68556 5.52542 6.7248 5.62754 6.78642 5.71604C6.84804 5.80454 6.9302 5.87677 7.02587 5.92653C7.12154 5.97629 7.22785 6.00211 7.33569 6.00176H12.0024C12.1285 6.00133 12.2522 6.0367 12.3591 6.10377C12.4659 6.17084 12.5515 6.26685 12.606 6.38065C12.6604 6.49445 12.6815 6.62137 12.6667 6.74665C12.6519 6.87194 12.6018 6.99045 12.5224 7.08842L5.92236 13.8884C5.87285 13.9456 5.80538 13.9842 5.73103 13.9979C5.65669 14.0117 5.57987 13.9997 5.5132 13.9641C5.44653 13.9284 5.39396 13.8712 5.36413 13.8017C5.3343 13.7322 5.32897 13.6547 5.34902 13.5818L6.62902 9.56842C6.66677 9.46741 6.67944 9.35874 6.66596 9.25175C6.65248 9.14476 6.61325 9.04264 6.55163 8.95414C6.49001 8.86564 6.40784 8.79341 6.31217 8.74365C6.2165 8.69389 6.11019 8.66807 6.00236 8.66842H1.33569Z" stroke="#F55E1D" stroke-width="1.33333" stroke-linecap="round" stroke-linejoin="round"/>
</svg>
