<svg width="32" height="32" viewBox="0 0 32 32" fill="none" xmlns="http://www.w3.org/2000/svg">
<path d="M12.0001 5.33329V2.66663M6.66675 6.66663L4.66675 4.66663M5.33341 12H2.66675M6.66675 17.3333L4.66675 19.3333M19.3334 4.66663L17.3334 6.66663" stroke="#0A1CE9" stroke-width="1.5" stroke-linecap="round" stroke-linejoin="round"/>
<mask id="path-2-inside-1_72_159" fill="white">
<path d="M10.0833 9.37141L28.9801 16.6394C29.4625 16.825 29.4469 17.5128 28.9566 17.6763L20.7577 20.4092C20.5931 20.4642 20.4641 20.5932 20.4091 20.7578L17.6762 28.9567C17.5127 29.447 16.8249 29.4626 16.6393 28.9802L9.37129 10.0834C9.1999 9.63784 9.63772 9.20003 10.0833 9.37141Z"/>
</mask>
<path d="M10.0833 9.37141L6.67278 18.2381L6.673 18.2382L10.0833 9.37141ZM28.9801 16.6394L32.3913 7.77297L32.3903 7.77259L28.9801 16.6394ZM28.9566 17.6763L31.9607 26.6888L31.9615 26.6886L28.9566 17.6763ZM20.7577 20.4092L17.7535 11.3967L17.7491 11.3982L20.7577 20.4092ZM20.4091 20.7578L11.3981 17.7492L11.3966 17.7537L20.4091 20.7578ZM17.6762 28.9567L26.6884 31.9616L26.6887 31.9608L17.6762 28.9567ZM16.6393 28.9802L7.77246 32.3905L7.77285 32.3915L16.6393 28.9802ZM9.37129 10.0834L18.2381 6.67312L18.238 6.6729L9.37129 10.0834ZM10.0833 9.37141L6.673 18.2382L25.5698 25.5062L28.9801 16.6394L32.3903 7.77259L13.4936 0.504626L10.0833 9.37141ZM28.9801 16.6394L25.5688 25.5058C17.7365 22.4924 17.9847 11.3204 25.9517 8.66406L28.9566 17.6763L31.9615 26.6886C40.909 23.7052 41.1884 11.1576 32.3913 7.77297L28.9801 16.6394ZM28.9566 17.6763L25.9525 8.6638L17.7535 11.3967L20.7577 20.4092L23.7618 29.4217L31.9607 26.6888L28.9566 17.6763ZM20.7577 20.4092L17.7491 11.3982C14.7514 12.3991 12.399 14.7515 11.3981 17.7492L20.4091 20.7578L29.4201 23.7663C28.5292 26.435 26.4349 28.5293 23.7662 29.4203L20.7577 20.4092ZM20.4091 20.7578L11.3966 17.7537L8.66368 25.9526L17.6762 28.9567L26.6887 31.9608L29.4216 23.7619L20.4091 20.7578ZM17.6762 28.9567L8.66394 25.9518C11.3203 17.9848 22.4922 17.7366 25.5057 25.5689L16.6393 28.9802L7.77285 32.3915C11.1575 41.1885 23.7051 40.9091 26.6884 31.9616L17.6762 28.9567ZM16.6393 28.9802L25.506 25.5699L18.2381 6.67312L9.37129 10.0834L0.504504 13.4937L7.77246 32.3905L16.6393 28.9802ZM9.37129 10.0834L18.238 6.6729C21.0219 13.9105 13.9104 21.022 6.67278 18.2381L10.0833 9.37141L13.4938 0.504712C5.36506 -2.62195 -2.62208 5.36518 0.50459 13.4939L9.37129 10.0834Z" fill="#0A1CE9" mask="url(#path-2-inside-1_72_159)"/>
</svg>
